<?xml version="1.0" encoding="utf-8"?>
<!-- Generator: Adobe Illustrator 25.2.1, SVG Export Plug-In . SVG Version: 6.00 Build 0)  -->
<svg version="1.1" id="Capa_1" xmlns="http://www.w3.org/2000/svg" xmlns:xlink="http://www.w3.org/1999/xlink" x="0px" y="0px"
	 viewBox="0 0 512 512" style="enable-background:new 0 0 512 512;" xml:space="preserve">
<style type="text/css">
	.st0{fill:#6A3311;}
</style>
<g>
	<g>
		<path class="st0" d="M510.6,278.9c-7-67.4-39.6-133.4-92-185.8c-109-109-270.7-124.7-360.4-34.9c-89.7,89.7-74,251.3,34.9,360.3
			c52.4,52.4,118.3,85,185.8,92c9,0.9,17.9,1.4,26.6,1.4c58,0,109.8-20.3,148-58.5C497.5,409.6,517.7,347.6,510.6,278.9z
			 M351.1,334.3c-35.7-27.3-74.4-38-116.5-49.6C128.7,255.7,76.1,167.4,63.9,63.8c29.8,36,51.8,77.1,88.4,107.2
			c39,32.1,82,43.7,129.1,57.4C385,258.5,436.2,346,448,447.9C415.7,409.1,392,365.5,351.1,334.3z"/>
	</g>
</g>
</svg>
