<?xml version="1.0" encoding="UTF-8" standalone="no"?><!DOCTYPE svg PUBLIC "-//W3C//DTD SVG 1.1//EN" "http://www.w3.org/Graphics/SVG/1.1/DTD/svg11.dtd"><svg width="100%" height="100%" viewBox="0 0 125 175" version="1.1" xmlns="http://www.w3.org/2000/svg" xmlns:xlink="http://www.w3.org/1999/xlink" xml:space="preserve" style="fill-rule:evenodd;clip-rule:evenodd;stroke-linecap:round;stroke-linejoin:round;stroke-miterlimit:1.5;"><rect id="Plan-de-travail1" x="0" y="0" width="125" height="175" style="fill:#fff;"/><g id="Cafoups-"><ellipse cx="78.378" cy="159.596" rx="46.622" ry="15.404" style="fill:#e2e2e2;"/><path d="M26.985,166.371l96.713,-0" style="fill:none;stroke:#000;stroke-width:2.5px;"/><path d="M90.584,52.86c10.852,21.758 -74.825,58.297 -82.984,38.782c11.907,34.642 40.117,72.924 50.622,73.295c26.301,-4.354 42.917,-12.358 56.405,-27.203c2.593,-10.383 -6.836,-52.511 -24.043,-84.874Z" style="fill:#fff;"/><clipPath id="_clip1"><path d="M90.584,52.86c10.852,21.758 -74.825,58.297 -82.984,38.782c11.907,34.642 40.117,72.924 50.622,73.295c26.301,-4.354 42.917,-12.358 56.405,-27.203c2.593,-10.383 -6.836,-52.511 -24.043,-84.874Z"/></clipPath><g clip-path="url(#_clip1)"><path d="M80.028,75.144c0,0 23.926,47.199 16.705,76.887c-0,0 13.496,-9.47 18.245,-14.648c2.593,-10.383 -7.187,-52.16 -24.394,-84.523c4.17,8.805 -4.217,16.359 -10.556,22.284Z" style="fill:#e2e2e2;"/></g><path d="M90.584,52.86c10.852,21.758 -74.825,58.297 -82.984,38.782c11.907,34.642 40.117,72.924 50.622,73.295c26.301,-4.354 42.917,-12.358 56.405,-27.203c2.593,-10.383 -6.836,-52.511 -24.043,-84.874Z" style="fill:none;stroke:#000;stroke-width:2.5px;"/><path d="M7.554,91.529c-3.833,-9.618 14.539,-23.348 35.056,-32.653c20.597,-9.342 43.355,-14.226 47.974,-6.016c5.426,10.879 -13.28,25.453 -34.363,34.868c-21.082,9.416 -44.541,13.671 -48.621,3.914l-0.046,-0.113Z" style="fill:#fff;"/><clipPath id="_clip2"><path d="M7.554,91.529c-3.833,-9.618 14.539,-23.348 35.056,-32.653c20.597,-9.342 43.355,-14.226 47.974,-6.016c5.426,10.879 -13.28,25.453 -34.363,34.868c-21.082,9.416 -44.541,13.671 -48.621,3.914l-0.046,-0.113Z"/></clipPath><g clip-path="url(#_clip2)"><path d="M8.789,92.132c-6.864,-5.005 10.447,-25.966 47.563,-38.6c-1.534,9.868 -2.087,18.085 12.025,27.949c-18.737,10.471 -51.352,23.185 -59.588,10.651Z" style="fill:#e2e2e2;"/></g><path d="M7.554,91.529c-3.833,-9.618 14.539,-23.348 35.056,-32.653c20.597,-9.342 43.355,-14.226 47.974,-6.016c5.426,10.879 -13.28,25.453 -34.363,34.868c-21.082,9.416 -44.541,13.671 -48.621,3.914l-0.046,-0.113Z" style="fill:none;stroke:#000;stroke-width:2.5px;"/><path d="M36.34,121.467c-2.169,-3.354 5.127,-10.913 10.167,-2.377" style="fill:none;stroke:#000;stroke-width:2.5px;"/><path d="M68.1,81.73c-0,0 -0.783,-0.476 -5.732,-0.846c-16.963,-1.266 -37.264,-15.919 -37.49,-44.66c-0.945,-20.399 -35.332,13.44 -17.098,55.738c10.624,14.626 55.962,-7.39 60.32,-10.232Z" style="fill:#36180d;stroke:#000;stroke-width:2.5px;"/><path d="M25.075,2.964c7.634,-3.9 17.074,6.233 5.509,13.611c-12.176,7.768 -14.336,-9.103 -5.509,-13.611Z" style="fill:#36180d;stroke:#000;stroke-width:2.5px;"/><path d="M49.327,112.421c6.086,-0.974 5.167,-10.285 -0.768,-9.858c-7.482,0.538 -6.125,10.961 0.768,9.858Z" style="stroke:#000;stroke-width:2.5px;"/><path d="M29.252,116.678c6.086,-0.974 5.167,-10.285 -0.768,-9.858c-7.481,0.538 -6.125,10.961 0.768,9.858Z" style="stroke:#000;stroke-width:2.5px;"/><path d="M54.632,101.452c2.245,1.502 3.07,4.641 2.462,8.232" style="fill:none;stroke:#000;stroke-width:1.25px;"/></g></svg>